<svg width="33" height="33" viewBox="0 0 33 33" fill="none" xmlns="http://www.w3.org/2000/svg">
<circle cx="16.5" cy="16.5" r="15.5" stroke="url(#paint0_linear)" stroke-width="2"/>
<path d="M15.53 27H9V23.7298H12.2479V9.25882H9V6H15.53V27Z" fill="url(#paint1_linear)"/>
<path d="M17.4379 14.7282H19.1527C19.4782 14.7282 19.7281 14.656 19.9022 14.5117C20.0839 14.3597 20.2164 14.1926 20.2997 14.0103C20.3905 13.7976 20.4435 13.5545 20.4587 13.2811V9.25882C20.4587 8.79544 20.5457 8.36625 20.7199 7.97124C20.894 7.56864 21.1287 7.22301 21.424 6.93435C21.7268 6.63809 22.0751 6.4102 22.4688 6.25068C22.87 6.08356 23.294 6 23.7407 6H27V9.25882H23.7407V13.3494C23.7407 13.6305 23.7142 13.8888 23.6612 14.1243C23.6082 14.3597 23.5363 14.5762 23.4454 14.7737C23.3546 14.9636 23.2524 15.1384 23.1388 15.2979C23.0252 15.4498 22.9079 15.5827 22.7868 15.6967C22.5066 15.9778 22.1886 16.198 21.8328 16.3576C22.1886 16.5095 22.5066 16.7336 22.7868 17.0298C22.9079 17.159 23.0252 17.3071 23.1388 17.4742C23.2524 17.6413 23.3546 17.8351 23.4454 18.0553C23.5363 18.268 23.6082 18.5111 23.6612 18.7846C23.7142 19.0505 23.7407 19.3467 23.7407 19.6734V23.7298H27V27H23.7407C23.3167 27 22.9041 26.9164 22.5028 26.7493C22.1091 26.5822 21.7609 26.3505 21.458 26.0543C21.1552 25.7656 20.9129 25.42 20.7312 25.0174C20.5495 24.6224 20.4587 24.1932 20.4587 23.7298V19.6734C20.4662 19.2556 20.4019 18.9327 20.2656 18.7048C20.1369 18.4769 19.9893 18.3098 19.8227 18.2035C19.6259 18.0819 19.4025 18.0098 19.1527 17.987H17.4379V14.7282Z" fill="url(#paint2_linear)"/>
<path d="M14.8612 26.0526H9.0329V23.162H11.9318V10.3707H9.0329V7.49011H14.8612V26.0526Z" fill="black"/>
<path d="M16.5641 15.2052H18.0946C18.3852 15.2052 18.6082 15.1414 18.7636 15.0138C18.9258 14.8795 19.044 14.7318 19.1184 14.5707C19.1994 14.3826 19.2468 14.1678 19.2603 13.9261V10.3707C19.2603 9.96108 19.338 9.58171 19.4934 9.23255C19.6488 8.87668 19.8583 8.57116 20.1218 8.31601C20.3921 8.05414 20.703 7.8527 21.0544 7.71169C21.4125 7.56397 21.7909 7.49011 22.1896 7.49011H25.0987V10.3707H22.1896V13.9865C22.1896 14.2349 22.166 14.4632 22.1187 14.6714C22.0714 14.8795 22.0072 15.0709 21.9261 15.2455C21.845 15.4133 21.7538 15.5678 21.6524 15.7088C21.551 15.8431 21.4463 15.9606 21.3382 16.0613C21.0882 16.3097 20.8043 16.5045 20.4867 16.6455C20.8043 16.7798 21.0882 16.9778 21.3382 17.2397C21.4463 17.3539 21.551 17.4848 21.6524 17.6325C21.7538 17.7802 21.845 17.9515 21.9261 18.1462C22.0072 18.3342 22.0714 18.5491 22.1187 18.7908C22.166 19.0258 22.1896 19.2877 22.1896 19.5764V23.162H25.0987V26.0526H22.1896C21.8112 26.0526 21.4429 25.9788 21.0848 25.831C20.7334 25.6833 20.4225 25.4785 20.1522 25.2166C19.882 24.9615 19.6657 24.656 19.5035 24.3001C19.3414 23.9509 19.2603 23.5716 19.2603 23.162V19.5764C19.267 19.2071 19.2096 18.9217 19.088 18.7203C18.9731 18.5188 18.8413 18.3711 18.6926 18.2771C18.517 18.1697 18.3176 18.1059 18.0946 18.0857H16.5641V15.2052Z" fill="black"/>
<defs>
<linearGradient id="paint0_linear" x1="28.1591" y1="4.70455" x2="5.72727" y2="28.4318" gradientUnits="userSpaceOnUse">
<stop stop-color="#61DAFB"/>
<stop offset="1" stop-color="#30B1A3" stop-opacity="0.14"/>
</linearGradient>
<linearGradient id="paint1_linear" x1="18" y1="6" x2="18" y2="27" gradientUnits="userSpaceOnUse">
<stop stop-color="#0085FF"/>
<stop offset="1" stop-color="#00F819"/>
</linearGradient>
<linearGradient id="paint2_linear" x1="18" y1="6" x2="18" y2="27" gradientUnits="userSpaceOnUse">
<stop stop-color="#0085FF"/>
<stop offset="1" stop-color="#00F819"/>
</linearGradient>
</defs>
</svg>
