<svg width="391" height="436" viewBox="0 0 391 436" fill="none" xmlns="http://www.w3.org/2000/svg">
<path d="M152.678 436H17V368.104H84.4852V67.6593H17V0H152.678V436Z" fill="url(#paint0_linear)"/>
<path d="M192.32 181.213H227.95C234.714 181.213 239.906 179.715 243.524 176.718C247.299 173.564 250.052 170.094 251.782 166.309C253.67 161.893 254.771 156.846 255.086 151.169V67.6593C255.086 58.0387 256.895 49.1279 260.513 40.9268C264.131 32.5679 269.008 25.3919 275.143 19.3988C281.435 13.248 288.671 8.51655 296.851 5.20456C305.188 1.73485 313.998 0 323.279 0H391V67.6593H323.279V152.588C323.279 158.424 322.728 163.786 321.627 168.675C320.526 173.564 319.032 178.059 317.144 182.16C315.256 186.102 313.133 189.73 310.773 193.042C308.413 196.196 305.975 198.956 303.458 201.322C297.638 207.157 291.031 211.731 283.637 215.043C291.031 218.197 297.638 222.85 303.458 229.001C305.975 231.682 308.413 234.757 310.773 238.227C313.133 241.697 315.256 245.718 317.144 250.292C319.032 254.708 320.526 259.755 321.627 265.432C322.728 270.952 323.279 277.103 323.279 283.885V368.104H391V436H323.279C314.47 436 305.896 434.265 297.559 430.795C289.379 427.326 282.143 422.515 275.85 416.365C269.558 410.372 264.524 403.196 260.749 394.837C256.974 386.636 255.086 377.725 255.086 368.104V283.885C255.243 275.211 253.906 268.508 251.074 263.776C248.4 259.045 245.333 255.575 241.872 253.367C237.782 250.844 233.141 249.346 227.95 248.872H192.32V181.213Z" fill="url(#paint1_linear)"/>
<path d="M135.678 436H0V368.104H67.4852V67.6593H0V0H135.678V436Z" fill="url(#paint2_linear)"/>
<path d="M175.32 181.213H210.95C217.714 181.213 222.906 179.715 226.524 176.718C230.299 173.564 233.052 170.094 234.782 166.309C236.67 161.893 237.771 156.846 238.086 151.169V67.6593C238.086 58.0387 239.895 49.1279 243.513 40.9268C247.131 32.5679 252.008 25.3919 258.143 19.3988C264.435 13.248 271.671 8.51655 279.851 5.20456C288.188 1.73485 296.998 0 306.279 0H374V67.6593H306.279V152.588C306.279 158.424 305.728 163.786 304.627 168.675C303.526 173.564 302.032 178.059 300.144 182.16C298.256 186.102 296.133 189.73 293.773 193.042C291.413 196.196 288.975 198.956 286.458 201.322C280.638 207.157 274.031 211.731 266.637 215.043C274.031 218.197 280.638 222.85 286.458 229.001C288.975 231.682 291.413 234.757 293.773 238.227C296.133 241.697 298.256 245.718 300.144 250.292C302.032 254.708 303.526 259.755 304.627 265.432C305.728 270.952 306.279 277.103 306.279 283.885V368.104H374V436H306.279C297.47 436 288.896 434.265 280.559 430.795C272.379 427.326 265.143 422.515 258.85 416.365C252.558 410.372 247.524 403.196 243.749 394.837C239.974 386.636 238.086 377.725 238.086 368.104V283.885C238.243 275.211 236.906 268.508 234.074 263.776C231.4 259.045 228.333 255.575 224.872 253.367C220.782 250.844 216.141 249.346 210.95 248.872H175.32V181.213Z" fill="url(#paint3_linear)"/>
<path d="M294.44 260.929C293.436 255.8 292.072 251.231 290.344 247.225C288.622 243.089 286.68 239.443 284.518 236.292C282.366 233.155 280.138 230.37 277.836 227.939L277.834 227.937C272.784 222.648 267.081 218.576 260.727 215.728C267.073 212.769 272.77 208.781 277.819 203.766C280.124 201.618 282.352 199.117 284.505 196.264L284.512 196.255C286.67 193.253 288.61 189.968 290.334 186.4L290.337 186.393C292.065 182.672 293.431 178.598 294.437 174.173C295.445 169.737 295.947 164.88 295.947 159.604V83.7699H356.861H357.361V83.2699V22.458V21.958H356.861H295.447C286.968 21.958 278.915 23.529 271.293 26.6727C263.816 29.6734 257.199 33.9612 251.447 39.5344C245.834 44.9685 241.375 51.4726 238.07 59.041C234.759 66.4802 233.106 74.5586 233.106 83.2699V158.314C232.822 163.36 231.835 167.831 230.153 171.732C228.621 175.052 226.177 178.111 222.803 180.906C219.643 183.499 215.066 184.832 208.997 184.832H176.686H176.186V185.332V246.144V246.644H176.686H208.975C213.602 247.065 217.727 248.388 221.358 250.608C224.408 252.537 227.137 255.585 229.534 259.787L229.533 259.787L229.54 259.798C232.039 263.936 233.248 269.852 233.106 277.604V277.613V353.309C233.106 362.023 234.831 370.104 238.287 377.545C241.736 385.112 246.337 391.614 252.09 397.046C257.841 402.617 264.455 406.974 271.929 410.116L271.932 410.117C279.552 413.26 287.392 414.833 295.447 414.833H356.861H357.361V414.333V353.309V352.809H356.861H295.947V277.613C295.947 271.491 295.446 265.929 294.44 260.929ZM294.44 260.929C294.44 260.929 294.44 260.929 294.44 260.929L293.949 261.028L294.44 260.932C294.44 260.931 294.44 260.93 294.44 260.929ZM140.736 414.833H141.236V414.333V22.458V21.958H140.736H17.6945H17.1945V22.458V83.2699V83.7699H17.6945H78.3943V352.809H17.6945H17.1945V353.309V414.333V414.833H17.6945H140.736Z" fill="white" stroke="black"/>
<defs>
<linearGradient id="paint0_linear" x1="204" y1="0" x2="204" y2="436" gradientUnits="userSpaceOnUse">
<stop stop-color="#0085FF"/>
<stop offset="1" stop-color="#00F819"/>
</linearGradient>
<linearGradient id="paint1_linear" x1="204" y1="0" x2="204" y2="436" gradientUnits="userSpaceOnUse">
<stop stop-color="#0085FF"/>
<stop offset="1" stop-color="#00F819"/>
</linearGradient>
<linearGradient id="paint2_linear" x1="187" y1="0" x2="187" y2="436" gradientUnits="userSpaceOnUse">
<stop stop-color="#0085FF"/>
<stop offset="1" stop-color="#00F819"/>
</linearGradient>
<linearGradient id="paint3_linear" x1="187" y1="0" x2="187" y2="436" gradientUnits="userSpaceOnUse">
<stop stop-color="#0085FF"/>
<stop offset="1" stop-color="#00F819"/>
</linearGradient>
</defs>
</svg>
