<svg width="304" height="304" viewBox="0 0 304 304" fill="none" xmlns="http://www.w3.org/2000/svg">
<circle cx="152" cy="152" r="148.5" stroke="url(#paint0_linear)" stroke-width="7"/>
<path d="M136.691 240H83V213.371H109.705V95.5361H83V69H136.691V240Z" fill="url(#paint1_linear)"/>
<path d="M152.378 140.072H166.478C169.154 140.072 171.209 139.485 172.64 138.309C174.134 137.072 175.224 135.711 175.909 134.227C176.656 132.495 177.091 130.515 177.216 128.289V95.5361C177.216 91.7629 177.932 88.268 179.363 85.0515C180.795 81.7732 182.725 78.9588 185.153 76.6082C187.643 74.1959 190.506 72.3402 193.743 71.0412C197.042 69.6804 200.528 69 204.201 69H231V95.5361H204.201V128.845C204.201 131.134 203.983 133.237 203.548 135.155C203.112 137.072 202.521 138.835 201.774 140.443C201.027 141.99 200.186 143.412 199.252 144.711C198.319 145.948 197.354 147.031 196.358 147.959C194.054 150.247 191.44 152.041 188.514 153.34C191.44 154.577 194.054 156.402 196.358 158.814C197.354 159.866 198.319 161.072 199.252 162.433C200.186 163.794 201.027 165.371 201.774 167.165C202.521 168.897 203.112 170.876 203.548 173.103C203.983 175.268 204.201 177.68 204.201 180.34V213.371H231V240H204.201C200.715 240 197.323 239.32 194.023 237.959C190.786 236.598 187.923 234.711 185.433 232.299C182.943 229.948 180.951 227.134 179.457 223.856C177.963 220.639 177.216 217.144 177.216 213.371V180.34C177.278 176.938 176.749 174.309 175.628 172.454C174.57 170.598 173.356 169.237 171.987 168.371C170.368 167.381 168.532 166.794 166.478 166.608H152.378V140.072Z" fill="url(#paint2_linear)"/>
<path d="M127.691 240H74V213.371H100.705V95.5361H74V69H127.691V240Z" fill="black"/>
<path d="M143.378 140.072H157.478C160.154 140.072 162.209 139.485 163.64 138.309C165.134 137.072 166.224 135.711 166.909 134.227C167.656 132.495 168.091 130.515 168.216 128.289V95.5361C168.216 91.7629 168.932 88.268 170.363 85.0515C171.795 81.7732 173.725 78.9588 176.153 76.6082C178.643 74.1959 181.506 72.3402 184.743 71.0412C188.042 69.6804 191.528 69 195.201 69H222V95.5361H195.201V128.845C195.201 131.134 194.983 133.237 194.548 135.155C194.112 137.072 193.521 138.835 192.774 140.443C192.027 141.99 191.186 143.412 190.252 144.711C189.319 145.948 188.354 147.031 187.358 147.959C185.054 150.247 182.44 152.041 179.514 153.34C182.44 154.577 185.054 156.402 187.358 158.814C188.354 159.866 189.319 161.072 190.252 162.433C191.186 163.794 192.027 165.371 192.774 167.165C193.521 168.897 194.112 170.876 194.548 173.103C194.983 175.268 195.201 177.68 195.201 180.34V213.371H222V240H195.201C191.715 240 188.323 239.32 185.023 237.959C181.786 236.598 178.923 234.711 176.433 232.299C173.943 229.948 171.951 227.134 170.457 223.856C168.963 220.639 168.216 217.144 168.216 213.371V180.34C168.278 176.938 167.749 174.309 166.628 172.454C165.57 170.598 164.356 169.237 162.987 168.371C161.368 167.381 159.532 166.794 157.478 166.608H143.378V140.072Z" fill="black"/>
<circle cx="160" cy="265" r="7" fill="url(#paint3_linear)"/>
<circle cx="158" cy="265" r="7" fill="black"/>
<defs>
<linearGradient id="paint0_linear" x1="259.405" y1="43.3389" x2="52.7603" y2="261.917" gradientUnits="userSpaceOnUse">
<stop stop-color="#61DAFB"/>
<stop offset="1" stop-color="#B2CD67" stop-opacity="0.37"/>
</linearGradient>
<linearGradient id="paint1_linear" x1="157" y1="69" x2="157" y2="240" gradientUnits="userSpaceOnUse">
<stop stop-color="#0085FF"/>
<stop offset="1" stop-color="#00F819"/>
</linearGradient>
<linearGradient id="paint2_linear" x1="157" y1="69" x2="157" y2="240" gradientUnits="userSpaceOnUse">
<stop stop-color="#0085FF"/>
<stop offset="1" stop-color="#00F819"/>
</linearGradient>
<linearGradient id="paint3_linear" x1="160" y1="258" x2="160" y2="272" gradientUnits="userSpaceOnUse">
<stop stop-color="#00EA35"/>
<stop offset="1" stop-color="#0089F8"/>
</linearGradient>
</defs>
</svg>
