<svg width="71" height="60" viewBox="0 0 71 60" fill="none" xmlns="http://www.w3.org/2000/svg">
<path d="M70.7434 30.0069C70.7434 25.5436 64.8746 21.3138 55.8766 18.6908C57.9531 9.95651 57.0302 3.00755 52.9638 0.782787C52.0266 0.260929 50.9306 0.0137329 49.7338 0.0137329V3.07622C50.3971 3.07622 50.9306 3.19982 51.3777 3.43328C53.3388 4.50446 54.1895 8.5832 53.5262 13.8293C53.3676 15.1202 53.108 16.4797 52.7908 17.8668C49.9645 17.2076 46.8787 16.6995 43.6342 16.3699C41.6876 13.8293 39.6688 11.5221 37.6356 9.50332C42.3365 5.34218 46.7489 3.06249 49.7482 3.06249V0C45.7828 0 40.5917 2.69169 35.3429 7.36095C30.0941 2.71916 24.903 0.0549327 20.9375 0.0549327V3.11742C23.9224 3.11742 28.3493 5.38338 33.0501 9.51705C31.0314 11.5358 29.0126 13.8293 27.0948 16.3699C23.8359 16.6995 20.7501 17.2076 17.9238 17.8805C17.5921 16.5072 17.347 15.1751 17.174 13.8979C16.4962 8.65186 17.3326 4.57313 19.2792 3.48821C19.7118 3.24102 20.2742 3.13115 20.9375 3.13115V0.0686656C19.7263 0.0686656 18.6303 0.315862 17.6786 0.83772C13.6267 3.06249 12.7182 9.99771 14.8091 18.7045C5.84001 21.3413 0 25.5573 0 30.0069C0 34.4701 5.86885 38.6999 14.8668 41.323C12.7903 50.0572 13.7132 57.0062 17.7796 59.2309C18.7169 59.7528 19.8128 60 21.024 60C24.9895 60 30.1806 57.3083 35.4294 52.639C40.6782 57.2808 45.8693 59.9451 49.8347 59.9451C51.046 59.9451 52.1419 59.6979 53.0936 59.176C57.1456 56.9512 58.054 50.016 55.9631 41.3092C64.9034 38.6862 70.7434 34.4564 70.7434 30.0069ZM51.9689 20.8469C51.4353 22.6184 50.772 24.4449 50.0222 26.2715C49.431 25.1728 48.8109 24.0742 48.1332 22.9755C47.4699 21.8769 46.7633 20.8057 46.0568 19.762C48.1044 20.0504 50.0799 20.4074 51.9689 20.8469ZM45.3646 35.4726C44.2399 37.3266 43.0863 39.0845 41.8894 40.7187C39.7409 40.8972 37.5635 40.9934 35.3717 40.9934C33.1943 40.9934 31.0169 40.8972 28.8828 40.7324C27.686 39.0982 26.518 37.3541 25.3932 35.5138C24.2973 33.7148 23.3024 31.8883 22.3939 30.0481C23.2879 28.2078 24.2973 26.3676 25.3788 24.5685C26.5036 22.7146 27.6571 20.9567 28.854 19.3225C31.0025 19.144 33.1799 19.0478 35.3717 19.0478C37.5491 19.0478 39.7265 19.144 41.8606 19.3088C43.0575 20.943 44.2255 22.6871 45.3502 24.5274C46.4461 26.3264 47.4411 28.1529 48.3495 29.9931C47.4411 31.8334 46.4461 33.6736 45.3646 35.4726ZM50.0222 33.6873C50.8009 35.5276 51.4642 37.3678 52.0121 39.1531C50.1231 39.5926 48.1332 39.9634 46.0712 40.2518C46.7778 39.1943 47.4843 38.1094 48.1476 36.997C48.8109 35.8984 49.431 34.786 50.0222 33.6873ZM35.4006 48.3406C34.0595 47.0222 32.7185 45.5528 31.3919 43.946C32.6896 44.0009 34.0163 44.0421 35.3573 44.0421C36.7127 44.0421 38.0538 44.0146 39.366 43.946C38.0682 45.5528 36.7272 47.0222 35.4006 48.3406ZM24.6722 40.2518C22.6246 39.9634 20.6491 39.6063 18.7601 39.1669C19.2937 37.3953 19.957 35.5688 20.7068 33.7423C21.298 34.8409 21.9181 35.9396 22.5958 37.0382C23.2735 38.1369 23.9657 39.2081 24.6722 40.2518ZM35.3285 11.6732C36.6695 12.9915 38.0105 14.461 39.3371 16.0677C38.0394 16.0128 36.7128 15.9716 35.3717 15.9716C34.0163 15.9716 32.6752 15.9991 31.363 16.0677C32.6608 14.461 34.0018 12.9915 35.3285 11.6732ZM24.6578 19.762C23.9513 20.8194 23.2447 21.9043 22.5814 23.0167C21.9181 24.1154 21.298 25.214 20.7068 26.3127C19.9281 24.4724 19.2648 22.6322 18.7169 20.8469C20.6059 20.4211 22.5958 20.0504 24.6578 19.762ZM11.6079 36.9558C6.50332 34.8821 3.20119 32.163 3.20119 30.0069C3.20119 27.8508 6.50332 25.1179 11.6079 23.0579C12.848 22.5498 14.2035 22.0966 15.6022 21.6709C16.4241 24.3626 17.5056 27.1641 18.8466 30.0343C17.52 32.8908 16.453 35.6786 15.6455 38.3566C14.2179 37.9309 12.8624 37.4639 11.6079 36.9558ZM19.3658 56.5804C17.4047 55.5093 16.5539 51.4305 17.2172 46.1845C17.3758 44.8936 17.6354 43.534 17.9526 42.1469C20.7789 42.8061 23.8647 43.3143 27.1092 43.6438C29.0559 46.1845 31.0746 48.4916 33.1078 50.5104C28.407 54.6715 23.9945 56.9512 20.9952 56.9512C20.3463 56.9375 19.7984 56.8139 19.3658 56.5804ZM53.5695 46.1158C54.2472 51.3619 53.4108 55.4406 51.4642 56.5255C51.0316 56.7727 50.4692 56.8826 49.8059 56.8826C46.821 56.8826 42.3941 54.6166 37.6933 50.4829C39.7121 48.4642 41.7308 46.1707 43.6487 43.6301C46.9075 43.3005 49.9934 42.7924 52.8196 42.1195C53.1513 43.5065 53.4109 44.8386 53.5695 46.1158ZM59.1211 36.9558C57.881 37.4639 56.5255 37.9171 55.1268 38.3429C54.3049 35.6512 53.2234 32.8496 51.8824 29.9794C53.209 27.1229 54.276 24.3351 55.0835 21.6571C56.5111 22.0829 57.8666 22.5498 59.1355 23.0579C64.2401 25.1316 67.5422 27.8508 67.5422 30.0069C67.5278 32.163 64.2257 34.8959 59.1211 36.9558Z" fill="#61DAFB"/>
<path d="M35.3574 36.2829C38.9969 36.2829 41.9473 33.473 41.9473 30.0069C41.9473 26.5407 38.9969 23.7308 35.3574 23.7308C31.7179 23.7308 28.7676 26.5407 28.7676 30.0069C28.7676 33.473 31.7179 36.2829 35.3574 36.2829Z" fill="#61DAFB"/>
</svg>
